<?xml version="1.0" standalone="no"?>
<!DOCTYPE svg PUBLIC "-//W3C//DTD SVG 20010904//EN"
 "http://www.w3.org/TR/2001/REC-SVG-20010904/DTD/svg10.dtd">
<svg version="1.0" xmlns="http://www.w3.org/2000/svg"
 width="398.000000pt" height="398.000000pt" viewBox="0 0 398.000000 398.000000"
 preserveAspectRatio="xMidYMid meet">
<metadata>
Created by potrace 1.11, written by Peter Selinger 2001-2013
</metadata>
<g transform="translate(0.000000,398.000000) scale(0.100000,-0.100000)"
fill="#000000" stroke="none">
<path d="M3034 3440 c-88 -21 -128 -39 -192 -83 -72 -51 -182 -169 -182 -195
0 -6 -7 -13 -16 -16 -9 -4 -15 -9 -12 -12 7 -6 -93 -108 -128 -130 -20 -13
-27 -14 -39 -4 -9 7 -14 15 -11 17 2 3 -2 20 -10 39 -8 19 -14 36 -14 39 0 3
-1 7 -1 10 -1 3 -2 8 -3 13 -1 4 -9 32 -18 62 -9 30 -19 69 -22 85 -17 92 -26
118 -45 136 -12 11 -25 18 -30 14 -5 -3 -11 -1 -13 4 -4 12 -81 -14 -86 -29
-2 -5 -10 -10 -18 -10 -8 0 -14 -7 -14 -15 0 -8 -4 -15 -9 -15 -5 0 -17 -17
-27 -37 -43 -89 -35 -118 52 -209 80 -83 129 -148 162 -211 12 -21 12 -21 -66
-16 -143 11 -407 3 -433 -13 -4 -2 -24 -7 -45 -10 -48 -8 -55 -9 -74 -17 -53
-21 -50 -23 -109 105 -49 108 -89 167 -162 238 -64 62 -181 129 -234 134 -20
2 -38 6 -42 10 -3 3 -12 1 -20 -6 -7 -6 -16 -8 -20 -5 -3 4 -14 2 -25 -4 -11
-6 -46 -12 -77 -14 -73 -3 -120 -26 -181 -86 -47 -47 -125 -183 -114 -200 3
-5 1 -9 -4 -9 -8 0 -12 -13 -23 -68 -1 -4 -6 -18 -11 -32 -5 -14 -11 -49 -13
-78 -3 -29 -7 -57 -10 -63 -4 -5 -1 -9 6 -9 9 0 9 -3 0 -14 -6 -7 -9 -20 -7
-27 3 -8 7 -69 10 -136 5 -114 4 -124 -20 -170 -13 -26 -27 -65 -30 -86 l-7
-38 -27 33 c-15 18 -37 44 -49 57 -15 18 -18 28 -11 42 6 10 10 28 10 41 0 13
5 29 12 36 7 7 9 12 4 12 -4 0 1 14 11 30 15 26 16 32 4 40 -18 11 -53 -11
-71 -45 -12 -23 -15 -24 -31 -9 -15 14 -28 47 -35 89 -1 6 -3 13 -4 18 -1 4
-3 10 -4 15 -8 35 -20 52 -36 52 -17 0 -19 -6 -15 -57 2 -32 2 -50 -1 -40 -3
9 -10 17 -15 17 -6 0 -7 5 -4 10 3 6 1 10 -4 10 -6 0 -11 7 -11 15 0 16 -36
39 -49 30 -10 -6 -9 -24 2 -42 5 -7 5 -13 0 -13 -4 0 -1 -4 7 -10 8 -5 12 -11
9 -15 -3 -3 -16 4 -29 15 -47 41 -55 -4 -10 -60 38 -47 38 -54 0 -35 -37 19
-46 19 -54 0 -4 -11 9 -25 43 -45 26 -17 57 -42 67 -56 10 -15 32 -40 48 -55
19 -19 27 -35 23 -49 -3 -11 4 -34 16 -52 12 -18 33 -55 47 -83 14 -27 28 -51
33 -53 4 -2 7 -8 7 -13 0 -5 29 -50 65 -98 63 -86 107 -127 124 -117 5 3 17
-4 27 -15 18 -20 18 -22 1 -33 -22 -17 -47 -77 -42 -102 2 -10 4 -22 4 -25 2
-14 38 -47 61 -55 49 -16 68 -10 47 14 -22 27 -26 47 -11 67 12 17 14 17 15 2
1 -9 2 -22 3 -27 2 -16 66 -69 108 -91 21 -11 39 -23 39 -27 7 -45 6 -64 -6
-75 -11 -11 -10 -15 5 -24 10 -7 20 -30 24 -60 23 -150 65 -283 142 -448 41
-86 105 -193 139 -231 5 -7 19 -25 30 -40 40 -57 245 -254 264 -254 5 0 11 -4
13 -9 2 -5 39 -32 83 -61 44 -28 79 -56 78 -60 -1 -4 3 -7 10 -7 34 1 48 -4
41 -15 -5 -8 -2 -9 11 -5 19 8 48 -10 40 -23 -3 -5 -1 -11 4 -14 5 -4 13 -1
17 5 5 8 3 9 -6 4 -8 -5 -11 -4 -6 3 9 15 36 4 36 -15 0 -8 -4 -11 -10 -8 -6
4 -7 -1 -3 -11 5 -14 7 -14 17 4 13 25 26 28 37 10 14 -21 10 -32 -6 -18 -9 7
-15 8 -15 2 0 -17 30 -23 37 -6 5 13 8 13 26 -3 11 -10 17 -12 13 -5 -4 7 -1
12 8 12 17 0 21 -12 9 -24 -11 -11 -12 -36 -1 -36 6 0 8 6 5 14 -6 16 17 41
31 32 18 -11 74 -17 68 -7 -4 6 5 7 24 1 16 -5 30 -5 30 -1 0 4 12 7 28 6 15
-1 32 1 37 4 6 3 12 6 15 7 3 0 18 6 33 12 16 7 33 10 38 6 5 -3 11 1 14 8 3
8 20 15 37 16 17 2 38 8 45 14 9 7 13 7 13 -1 0 -6 -5 -11 -12 -11 -9 0 -9 -3
0 -12 19 -19 14 -33 -6 -15 -19 17 -54 17 -60 -1 -2 -6 -15 -8 -30 -6 -22 4
-24 2 -12 -7 13 -9 12 -10 -2 -5 -25 8 -48 -3 -48 -23 0 -13 -2 -13 -9 -2 -7
11 -9 11 -14 0 -5 -12 -8 -11 -17 1 -10 13 -11 12 -6 -3 3 -10 6 -21 6 -24 0
-3 8 1 17 8 15 12 16 12 10 -4 -4 -10 -3 -16 2 -12 5 3 11 0 14 -7 2 -7 3 -5
1 5 -4 25 6 48 17 41 5 -3 7 -10 3 -15 -7 -12 14 -39 30 -39 6 0 3 5 -7 11 -9
6 -15 15 -11 20 3 5 1 16 -6 24 -9 11 -6 13 17 10 15 -2 31 -4 36 -4 4 -1 7
-6 7 -11 0 -6 -7 -10 -16 -8 -10 2 -19 -3 -22 -11 -3 -10 0 -12 11 -8 9 3 19
2 22 -3 3 -4 0 -10 -7 -12 -8 -3 -6 -7 4 -11 13 -5 16 -1 12 21 l-5 27 24 -23
c24 -23 47 -29 47 -12 0 5 -8 6 -17 3 -16 -6 -16 -5 -4 10 11 14 17 15 28 5 8
-7 22 -13 30 -14 12 -2 12 1 -2 22 -20 30 -2 32 20 2 12 -18 17 -20 24 -9 5 8
11 9 15 3 3 -6 2 -13 -4 -17 -5 -3 -10 -12 -10 -18 0 -7 5 -4 11 6 6 10 16 14
22 10 7 -3 5 2 -4 13 -17 19 -15 44 2 44 6 0 7 -5 4 -10 -9 -15 13 -40 35 -40
9 0 25 9 35 20 10 11 13 20 7 20 -6 0 -13 -6 -15 -12 -4 -10 -6 -10 -6 0 -1 6
-8 12 -17 12 -8 0 -12 4 -9 10 3 5 20 8 37 6 18 -2 41 0 53 5 16 8 15 9 -7 4
-22 -4 -28 -2 -29 12 0 11 -3 13 -6 5 -2 -6 -9 -9 -14 -6 -6 3 -16 0 -24 -6
-18 -15 -20 1 -2 19 10 11 8 11 -10 0 -16 -10 -19 -16 -11 -26 11 -14 0 -18
-17 -5 -17 12 -18 42 -1 36 8 -3 17 -1 21 5 3 7 0 8 -9 5 -9 -3 -16 -1 -16 4
0 12 28 9 57 -6 10 -5 24 -7 31 -5 6 3 12 0 12 -6 0 -6 9 -11 20 -11 10 0 29
-4 42 -9 53 -21 65 -24 100 -26 20 -1 45 -8 54 -16 10 -8 15 -9 11 -3 -4 7 13
13 51 18 77 8 90 11 98 19 4 4 14 1 22 -6 10 -7 13 -7 9 -1 -4 7 11 18 38 28
24 10 66 28 91 41 26 13 52 21 57 18 6 -3 7 -2 4 4 -6 10 44 53 62 53 5 0 11
3 13 8 2 4 25 25 53 47 62 50 106 94 170 170 28 33 55 63 60 67 6 4 6 8 1 8
-5 0 0 10 11 23 33 37 106 170 156 287 34 79 92 276 102 345 2 11 4 22 6 25 1
3 3 10 4 15 5 30 18 103 22 120 6 32 15 116 16 167 1 27 4 48 7 48 11 0 -2
271 -16 331 -2 11 -6 27 -8 37 -2 9 -10 37 -17 62 -7 25 -13 47 -13 50 -1 3
-5 11 -9 18 -5 6 -6 12 -2 12 8 0 -98 201 -121 230 -44 56 -192 202 -224 222
-80 50 -98 60 -155 87 -69 32 -121 53 -132 53 -4 0 -17 5 -28 11 -22 12 -73
24 -185 44 -84 15 -417 8 -445 -9 -6 -4 -17 -3 -25 2 -12 8 -8 16 21 42 49 45
89 78 92 76 1 -1 26 7 54 16 29 10 57 15 63 11 5 -3 10 -2 10 2 0 7 135 10
150 4 3 -2 19 -4 35 -6 44 -4 72 -10 145 -30 118 -31 233 -25 385 21 53 17
141 35 190 39 32 3 61 8 64 11 5 4 -34 86 -61 129 -36 55 -161 163 -237 203
-44 24 -81 40 -81 36 0 -3 -6 -2 -12 4 -37 29 -205 36 -304 12z m-567 -3152
c-1 -18 3 -23 19 -21 12 1 21 -4 21 -13 0 -9 -7 -12 -18 -9 -9 3 -20 1 -24 -4
-3 -6 0 -8 8 -5 18 6 32 -12 17 -21 -13 -8 -41 13 -39 29 3 24 -2 36 -13 36
-9 0 -9 -3 0 -12 9 -9 8 -16 -4 -29 -10 -11 -12 -19 -5 -24 6 -3 11 -11 11
-16 0 -6 -7 -4 -15 5 -9 8 -23 13 -33 10 -14 -5 -13 -2 3 12 15 13 16 15 3 11
-10 -3 -19 1 -22 10 -9 24 2 28 22 10 25 -23 35 -21 29 4 -8 29 2 49 24 49 14
0 18 -6 16 -22z m43 13 c0 -14 -30 -35 -38 -26 -4 4 -1 10 6 12 6 3 10 9 6 14
-3 5 2 9 10 9 9 0 16 -4 16 -9z m-153 -63 c-8 -5 -7 -8 3 -8 9 0 16 -9 17 -20
2 -26 -3 -25 -22 4 -8 13 -12 31 -9 40 5 14 9 15 15 5 5 -8 3 -17 -4 -21z
m209 -23 c18 -15 18 -15 -5 -13 -14 2 -26 9 -29 16 -5 17 10 15 34 -3z"/>
<path d="M1711 287 c-13 -21 -12 -21 5 -5 10 10 16 20 13 22 -3 3 -11 -5 -18
-17z"/>
<path d="M1801 293 c-1 -17 16 -25 25 -12 4 7 3 9 -4 5 -5 -3 -13 0 -15 6 -4
9 -6 10 -6 1z"/>
<path d="M1453 269 c-2 -23 3 -25 10 -4 4 8 3 16 -1 19 -4 3 -9 -4 -9 -15z"/>
<path d="M1495 280 c-3 -5 -1 -10 4 -10 6 0 11 5 11 10 0 6 -2 10 -4 10 -3 0
-8 -4 -11 -10z"/>
<path d="M1606 265 c-11 -8 -15 -15 -9 -15 6 0 16 7 23 15 16 19 11 19 -14 0z"/>
<path d="M1377 255 c-4 -8 -3 -16 1 -19 4 -3 9 4 9 15 2 23 -3 25 -10 4z"/>
<path d="M1650 261 c0 -6 4 -13 10 -16 6 -3 7 1 4 9 -7 18 -14 21 -14 7z"/>
<path d="M1766 257 c3 -10 9 -15 12 -12 3 3 0 11 -7 18 -10 9 -11 8 -5 -6z"/>
<path d="M3396 262 c-3 -5 1 -9 9 -9 8 0 12 4 9 9 -3 4 -7 8 -9 8 -2 0 -6 -4
-9 -8z"/>
<path d="M1795 249 c-4 -6 -5 -12 -2 -15 2 -3 7 2 10 11 7 17 1 20 -8 4z"/>
<path d="M1855 250 c5 -9 2 -10 -13 -6 -23 8 -39 -8 -21 -20 8 -5 9 -3 4 6 -5
9 -2 10 13 6 23 -8 39 8 21 20 -8 5 -9 3 -4 -6z"/>
<path d="M2667 243 c-10 -10 -8 -33 3 -33 5 0 6 7 3 17 -4 11 -3 14 5 9 7 -4
12 -2 12 3 0 12 -13 14 -23 4z"/>
<path d="M3290 240 c0 -5 5 -10 11 -10 5 0 7 5 4 10 -3 6 -8 10 -11 10 -2 0
-4 -4 -4 -10z"/>
<path d="M2630 230 c-8 -5 -10 -10 -5 -10 6 0 4 -4 -3 -8 -9 -7 -10 -15 -2
-33 10 -24 10 -24 6 -1 -2 13 1 25 8 28 7 3 13 11 13 19 0 8 -1 15 -1 15 -1 0
-8 -5 -16 -10z"/>
<path d="M2700 221 c-10 -20 4 -41 17 -27 4 3 1 6 -5 6 -6 0 -9 7 -6 15 6 14
8 13 19 -2 7 -10 11 -22 8 -27 -4 -5 -1 -6 5 -2 9 5 7 14 -4 32 -20 29 -21 29
-34 5z"/>
<path d="M3094 226 c1 -8 5 -18 8 -22 4 -3 5 1 4 10 -1 8 -5 18 -8 22 -4 3 -5
-1 -4 -10z"/>
<path d="M1615 219 c-3 -4 2 -6 10 -5 21 3 28 13 10 13 -9 0 -18 -4 -20 -8z"/>
<path d="M1773 217 c0 -7 9 -13 19 -13 10 0 18 1 18 3 0 1 -8 7 -18 12 -13 7
-19 6 -19 -2z"/>
<path d="M1890 220 c0 -5 5 -10 10 -10 6 0 10 5 10 10 0 6 -4 10 -10 10 -5 0
-10 -4 -10 -10z"/>
<path d="M1955 220 c3 -5 11 -10 16 -10 6 0 7 5 4 10 -3 6 -11 10 -16 10 -6 0
-7 -4 -4 -10z"/>
<path d="M2025 220 c-3 -5 -1 -10 4 -10 6 0 11 5 11 10 0 6 -2 10 -4 10 -3 0
-8 -4 -11 -10z"/>
<path d="M2965 220 c-5 -8 62 -7 69 1 3 2 -11 5 -30 5 -20 0 -37 -3 -39 -6z"/>
<path d="M1709 203 c-13 -16 -12 -17 3 -5 9 8 23 10 29 6 8 -4 9 -3 5 4 -10
17 -21 15 -37 -5z"/>
<path d="M1908 190 c-10 -18 -13 -32 -7 -36 5 -3 8 -2 7 3 -1 4 4 19 11 31 7
13 11 25 9 27 -2 2 -11 -9 -20 -25z"/>
<path d="M2055 211 c3 -5 -4 -12 -15 -16 -11 -3 -20 -11 -20 -16 0 -5 11 -2
25 7 21 14 26 34 9 34 -3 0 -3 -4 1 -9z"/>
<path d="M2153 213 c-7 -3 -13 -9 -13 -15 0 -7 4 -7 13 1 10 8 17 7 25 -1 6
-6 14 -9 18 -6 8 9 -28 26 -43 21z"/>
<path d="M2761 208 c9 -7 14 -19 12 -25 -6 -18 4 -16 11 2 3 9 -3 19 -17 25
-19 10 -20 9 -6 -2z"/>
<path d="M2795 210 c3 -5 8 -10 11 -10 2 0 4 5 4 10 0 6 -5 10 -11 10 -5 0 -7
-4 -4 -10z"/>
<path d="M1666 198 c3 -5 10 -6 15 -3 13 9 11 12 -6 12 -8 0 -12 -4 -9 -9z"/>
<path d="M2092 196 c10 -7 14 -17 10 -22 -4 -4 1 -2 11 5 18 14 24 26 8 16 -5
-3 -12 -1 -16 5 -3 5 -12 10 -18 10 -7 0 -4 -6 5 -14z"/>
<path d="M3255 201 c-3 -5 -2 -12 3 -15 5 -3 9 1 9 9 0 17 -3 19 -12 6z"/>
<path d="M1870 185 c0 -8 2 -15 4 -15 2 0 6 7 10 15 3 8 1 15 -4 15 -6 0 -10
-7 -10 -15z"/>
<path d="M2646 183 c-6 -14 -5 -15 5 -6 7 7 10 15 7 18 -3 3 -9 -2 -12 -12z"/>
<path d="M2675 191 c5 -9 1 -19 -10 -28 -11 -7 -14 -13 -8 -13 6 0 16 7 23 15
11 13 11 18 0 28 -10 10 -11 9 -5 -2z"/>
<path d="M2835 189 c-4 -6 -5 -12 -2 -15 2 -3 7 2 10 11 7 17 1 20 -8 4z"/>
<path d="M1611 187 c2 -1 13 -9 24 -17 19 -14 19 -14 6 3 -7 9 -18 17 -24 17
-6 0 -8 -1 -6 -3z"/>
<path d="M1775 179 c5 -7 52 -6 59 2 3 2 -10 5 -29 5 -18 0 -32 -3 -30 -7z"/>
<path d="M1930 181 c0 -4 11 -7 25 -7 14 0 25 3 25 7 0 3 -11 7 -25 7 -14 0
-25 -4 -25 -7z"/>
<path d="M2070 181 c0 -6 4 -13 10 -16 6 -3 7 1 4 9 -7 18 -14 21 -14 7z"/>
<path d="M2144 174 c-18 -15 -18 -15 2 -5 12 6 25 7 29 3 5 -4 5 -1 1 6 -9 15
-8 15 -32 -4z"/>
<path d="M2893 173 c0 -9 4 -10 14 -2 7 6 13 12 13 14 0 1 -6 2 -13 2 -8 0
-14 -6 -14 -14z"/>
<path d="M3056 178 c3 -5 10 -6 15 -3 13 9 11 12 -6 12 -8 0 -12 -4 -9 -9z"/>
<path d="M2198 173 c7 -3 16 -2 19 1 4 3 -2 6 -13 5 -11 0 -14 -3 -6 -6z"/>
<path d="M2040 160 c-9 -6 -10 -10 -3 -10 6 0 15 5 18 10 8 12 4 12 -15 0z"/>
<path d="M2273 158 c1 -7 -4 -12 -11 -10 -8 1 -11 -2 -7 -8 5 -8 11 -8 21 1 7
6 11 15 8 20 -8 13 -14 11 -11 -3z"/>
<path d="M2453 155 c0 -8 4 -12 9 -9 5 3 6 10 3 15 -9 13 -12 11 -12 -6z"/>
<path d="M2510 166 c0 -2 9 -6 20 -9 11 -3 18 -1 14 4 -5 9 -34 13 -34 5z"/>
<path d="M2588 163 c7 -3 16 -2 19 1 4 3 -2 6 -13 5 -11 0 -14 -3 -6 -6z"/>
<path d="M2095 149 c-4 -6 -5 -12 -2 -15 2 -3 7 2 10 11 7 17 1 20 -8 4z"/>
<path d="M2695 151 c-3 -5 -2 -12 3 -15 5 -3 9 1 9 9 0 17 -3 19 -12 6z"/>
<path d="M2813 145 c0 -8 4 -12 9 -9 5 3 6 10 3 15 -9 13 -12 11 -12 -6z"/>
<path d="M2416 138 c3 -5 10 -6 15 -3 13 9 11 12 -6 12 -8 0 -12 -4 -9 -9z"/>
<path d="M2576 138 c3 -5 10 -6 15 -3 13 9 11 12 -6 12 -8 0 -12 -4 -9 -9z"/>
</g>
</svg>
